PathFileType	4	(X/Y/Z)	DARI_DATA/Captury_Subj6_bilateral_squat02.trc
DataRate	CameraRate	NumFrames	NumMarkers	Units	OrigDataRate	OrigDataStartFrame	OrigNumFrames
60	60	8	47	mm	59.99879837036133	179	204
Frame#	Time		LeftUpLeg_		RightUpLeg_		LeftLeg_		RightLeg_		LeftFoot_		RightFoot_		LeftToeBase_		RightToeBase_		Knee_Lateral_r		Knee_Lateral_l		Ankle_Lateral_r		Ankle_Lateral_l		LeftArm_		LeftForeArm_		LeftHand_		LeftHandEE		RightArm_		RightForeArm_		RightHand_		RightHandEE		Spine_		Spine1_		Spine2_		Spine3_		Spine4_		Spine5_		Spine_x		Spine_y		Spine_z		RASI		LASI		RIPS		LIPS		RTHI		LTHI		RTIB		LTIB		RTOE		LTOE		RHEE		LHEE		RHipAngles		LHipAngles		RKneeAngles		LKneeAngles		RAnkleAngles		LAnkleAngles
			X1	Y1	Z1	X2	Y2	Z2	X3	Y3	Z3	X4	Y4	Z4	X5	Y5	Z5	X6	Y6	Z6	X7	Y7	Z7	X8	Y8	Z8	X9	Y9	Z9	X10	Y10	Z10	X11	Y11	Z11	X12	Y12	Z12	X13	Y13	Z13	X14	Y14	Z14	X15	Y15	Z15	X16	Y16	Z16	X17	Y17	Z17	X18	Y18	Z18	X19	Y19	Z19	X20	Y20	Z20	X21	Y21	Z21	X22	Y22	Z22	X23	Y23	Z23	X24	Y24	Z24	X25	Y25	Z25	X26	Y26	Z26	X27	Y27	Z27	X28	Y28	Z28	X29	Y29	Z29	X30	Y30	Z30	X31	Y31	Z31	X32	Y32	Z32	X33	Y33	Z33	X34	Y34	Z34	X35	Y35	Z35	X36	Y36	Z36	X37	Y37	Z37	X38	Y38	Z38	X39	Y39	Z39	X40	Y40	Z40	X41	Y41	Z41	X42	Y42	Z42	X43	Y43	Z43	X44	Y44	Z44	X45	Y45	Z45	X46	Y46	Z46	X47	Y47	Z47

179	2.96667	-91.45966	1017.87695	30.17466	105.21588	1012.60223	41.38689	-149.88687	541.36011	14.52460	162.66093	536.39880	15.74822	-193.77011	102.53500	63.53984	206.83878	98.41895	71.58407	-226.74854	30.82453	-65.38446	238.37099	31.80721	-60.40093	217.12889	539.71161	23.61727	-204.58109	545.04077	20.41097	258.06128	104.12882	101.17912	-246.08412	108.79087	91.04113	-146.86615	1619.22351	38.90420	-193.65280	1603.52612	-301.42715	-165.73802	1604.36145	-573.38324	-157.67596	1599.35962	-672.70349	173.91815	1616.51184	55.81237	225.66113	1600.34082	-283.77853	211.60579	1633.50891	-554.78107	194.93326	1627.14551	-652.94446	7.84287	1120.28162	68.27377	11.32198	1238.13147	58.45758	12.15437	1322.92542	77.54700	11.92147	1423.52454	121.86993	13.58653	1583.01709	122.16510	0.00000	0.00000	0.00000	62.89088	1118.80530	71.41199	8.99601	1175.14343	73.85561	4.57205	1114.77649	123.05795	180.14500	1096.14795	-57.14268	-150.14305	1105.00598	-75.97200	49.22691	1082.88025	100.30574	-38.84991	1085.24243	95.28460	207.22066	798.00134	43.99277	-194.35136	803.73029	34.62455	228.87158	341.68808	30.31727	-219.15128	280.05084	25.57032	255.52003	30.53209	-143.87196	-242.15578	30.45888	-149.20338	199.01994	27.05270	133.70461	-190.61859	34.20473	129.37506	2.47914	5.24623	4.67585	4.25220	2.55514	9.32598	-4.54585	0.17605	0.01170	-2.50384	-0.59079	-0.11413	4.37038	3.20638	-0.11902	7.39468	4.69105	3.42747
180	2.98333	-91.42371	1017.82379	28.13497	105.20335	1012.49048	40.14191	-149.96939	541.26141	14.43509	162.66830	536.24451	15.35152	-193.90292	102.44064	63.44336	207.14006	98.36795	71.76141	-226.68555	30.70510	-65.51694	238.24150	31.96388	-60.43027	217.11029	539.56097	23.39686	-204.63960	544.97064	20.52320	258.24005	104.10632	101.56203	-246.09912	108.72063	91.16219	-146.40181	1618.95569	39.02931	-193.50201	1604.50098	-301.31387	-166.67142	1606.26941	-573.37451	-159.44232	1602.04211	-672.79480	174.27792	1616.39478	56.89690	225.42368	1601.39136	-282.83801	212.23950	1634.59485	-553.88000	195.38148	1628.98999	-652.05798	7.72648	1120.07300	67.04007	11.27699	1238.03064	57.71568	12.07993	1322.81616	77.16138	11.75385	1423.30090	121.90903	13.59476	1582.85950	122.89156	0.00000	0.00000	0.00000	62.76091	1118.58020	70.40072	8.85992	1174.91284	72.83821	4.22824	1114.35681	121.78857	180.54549	1096.40955	-57.75326	-149.66115	1105.36621	-77.91716	48.97502	1082.54517	99.09880	-39.08009	1084.93359	93.72176	207.16965	797.87994	43.38280	-194.32291	803.70837	33.76250	229.05017	341.62561	30.36183	-219.33829	279.98730	25.65489	255.23221	30.86797	-143.93622	-242.08447	30.38263	-149.33759	199.23105	26.88464	133.73576	-190.56935	34.08678	129.24513	2.77912	5.25813	4.63603	4.69365	2.54378	9.77736	-4.51041	0.24574	0.05420	-2.27230	-0.59082	-0.08738	4.21625	2.87108	-0.34051	7.41014	4.43767	3.27658
181	3.00000	-91.27185	1017.79626	26.59417	105.32617	1012.35205	39.01992	-150.09900	541.21552	14.88206	162.67448	536.08008	14.45977	-193.92174	102.32593	63.37184	207.01126	98.32419	71.90328	-226.69563	30.85217	-65.73593	238.23712	31.85130	-60.22448	217.07117	539.36530	22.81829	-204.73083	544.96997	21.27910	257.93225	104.10676	102.00027	-245.95256	108.56386	91.40924	-146.10672	1618.54382	39.08226	-193.53381	1605.25574	-301.26300	-167.26657	1608.15637	-573.36890	-160.79741	1604.39709	-672.86029	174.49088	1616.26440	57.56361	225.57715	1602.20715	-282.22070	212.28027	1636.00208	-553.18402	195.18030	1630.27136	-651.31287	7.80296	1119.77014	66.40327	11.40246	1237.82678	57.65392	12.18484	1322.59778	77.41591	11.79328	1423.02625	122.42237	13.66575	1582.63928	123.69836	0.00000	0.00000	0.00000	62.82928	1118.24634	69.88115	8.93094	1174.57031	72.56637	4.17733	1113.69275	121.10457	180.90663	1096.90442	-58.14407	-149.25127	1106.04700	-79.01132	48.97185	1082.02466	98.30849	-39.07026	1084.46265	92.74390	207.15590	797.68549	42.80114	-194.22681	803.74719	33.56546	229.05533	341.51901	30.20655	-219.50645	279.94922	26.04680	255.33594	30.78601	-143.70877	-242.15565	30.75357	-149.54588	198.95911	26.86767	133.89011	-190.42899	33.81800	129.00493	3.14004	5.27007	4.84214	5.28417	2.53308	10.23133	-4.61368	0.31940	0.06132	-1.97628	-0.62693	-0.06924	4.13227	2.61559	-0.40003	7.37452	4.14650	3.20246
182	3.01667	-91.16284	1018.02283	25.39854	105.40904	1012.49103	38.19339	-149.95511	541.41138	14.82331	162.72269	536.18042	14.31633	-193.84413	102.54333	63.44562	206.98453	98.43961	71.93025	-226.33905	31.18059	-65.79399	238.17497	32.01594	-60.23061	217.09383	539.46204	22.84079	-204.56158	545.16907	21.43151	257.82855	104.22001	102.15752	-245.76465	108.78558	91.68581	-145.89215	1618.10376	39.00222	-193.79668	1605.73059	-301.31070	-167.26965	1609.94519	-573.37427	-161.37865	1606.37976	-672.90869	174.62347	1616.13525	57.93388	225.80936	1602.81641	-281.86526	212.52489	1637.17297	-552.75854	195.50490	1631.73730	-650.91809	7.84663	1119.79639	65.87718	11.48761	1237.83521	57.55698	12.25725	1322.49792	77.57127	11.82963	1422.76904	122.81572	13.73379	1582.33093	124.41335	0.00000	0.00000	0.00000	62.86562	1118.24805	69.45837	8.97017	1174.56726	72.29572	4.11035	1113.46692	120.54243	181.19658	1097.47974	-58.42699	-148.91740	1106.76965	-79.91408	48.94593	1081.89746	97.69016	-39.08446	1084.37476	91.96027	207.17650	797.80530	42.51913	-194.05264	803.97064	33.18616	229.09496	341.63239	30.25764	-219.46942	280.18420	26.23284	255.22307	31.01648	-143.72607	-241.62358	31.20256	-149.63618	199.01460	26.96429	133.90601	-190.46758	33.97589	129.02257	3.46153	5.29028	4.91366	5.67154	2.49624	10.56529	-4.55585	0.33437	0.03240	-1.85866	-0.59812	-0.07062	4.09452	2.44729	-0.35869	7.31341	3.82192	3.19709
183	3.03333	-90.89270	1017.99829	24.10960	105.64058	1012.41553	37.46252	-149.80005	541.36560	15.27525	162.75415	536.04907	14.22654	-193.81003	102.47635	63.59548	206.33623	98.24561	71.88328	-226.12582	31.39880	-65.84604	238.39294	31.90318	-60.11102	217.05183	539.28711	23.22277	-204.37402	545.15179	22.13109	256.94501	103.97591	102.51217	-245.60794	108.69724	92.06463	-145.50925	1617.92090	39.14557	-194.23212	1606.05457	-301.06921	-167.05399	1611.29333	-573.05072	-160.94711	1608.17139	-672.58704	174.98328	1616.02380	58.37280	226.15851	1603.44348	-281.45609	212.83611	1638.17334	-552.29993	195.65259	1633.16980	-650.45392	7.97816	1119.53467	65.51220	11.65305	1237.64185	57.67912	12.39390	1322.28601	77.92937	11.90317	1422.52917	123.31972	13.90025	1582.12549	125.01644	0.00000	0.00000	0.00000	62.98636	1117.97205	69.24958	9.07365	1174.26514	72.27114	4.07821	1112.86816	120.12593	181.70537	1098.00806	-58.40398	-148.34383	1107.38367	-80.82827	48.98745	1081.44641	97.21498	-39.02567	1083.94653	91.23517	207.18367	797.64478	42.73733	-193.77377	803.98663	33.04204	228.89856	341.45538	30.55301	-219.45966	280.17728	26.68751	255.94992	31.02107	-143.50229	-241.25233	31.63582	-149.71654	198.04587	26.73779	133.77943	-190.60933	33.77512	129.04109	3.82641	5.27598	5.25105	6.21453	2.48398	10.99496	-4.49408	0.34520	-0.01343	-1.61550	-0.59341	-0.08524	4.08742	2.36153	-0.27017	7.23919	3.49448	3.24224
184	3.05000	-90.67059	1018.12482	23.10136	105.82507	1012.40082	36.93957	-149.82913	541.50525	15.29388	162.66779	535.99158	13.91282	-193.49158	102.59613	63.75043	205.94383	98.17285	71.68539	-225.89511	31.68394	-65.75989	238.27948	31.74924	-60.20002	216.94299	539.19257	23.05673	-204.35950	545.32440	22.47087	256.48987	103.89362	102.41949	-245.12769	108.77166	92.52174	-145.02365	1617.81567	39.29115	-194.63997	1606.30737	-300.80679	-166.67226	1612.52576	-572.68762	-159.84070	1609.23035	-672.17120	175.45822	1615.86023	58.41133	226.76634	1603.73657	-281.41406	212.91379	1639.11230	-552.14764	196.04802	1634.53662	-650.37756	8.11234	1119.34570	65.47490	11.86313	1237.49585	58.14941	12.61516	1322.10046	78.61868	12.12385	1422.31616	124.09936	14.25092	1581.92383	125.76753	0.00000	0.00000	0.00000	63.11000	1117.74365	69.34811	9.20216	1174.02747	72.61830	4.06502	1112.29944	120.03021	182.16499	1098.64124	-58.12427	-147.82100	1108.25391	-81.36353	49.02818	1081.02722	97.02061	-38.96808	1083.59058	90.82348	207.20279	797.55951	42.51534	-193.58586	804.16992	32.95208	228.69568	341.37085	30.38938	-219.38055	280.30264	27.03659	255.96922	30.86751	-143.56325	-241.05605	32.07813	-149.62360	197.62297	26.70975	133.62912	-190.28279	33.81588	129.11264	4.23289	5.27824	5.26587	6.71205	2.46688	11.47692	-4.48613	0.36141	-0.04808	-1.52371	-0.63867	-0.09406	4.11374	2.34108	-0.18098	7.16156	3.21382	3.30441
185	3.06667	-90.39000	1018.06232	22.67235	106.12381	1012.41412	36.28241	-149.68056	541.45374	15.19467	162.78671	535.94348	14.10204	-193.57082	102.59692	63.91862	205.86478	98.07205	71.62172	-225.70169	31.76476	-65.70340	238.19109	31.54096	-60.21178	217.06421	539.14069	23.23363	-204.20378	545.29150	22.41588	256.42526	103.77787	102.33481	-245.17352	108.79427	92.74513	-144.81827	1617.94373	39.48846	-195.21014	1606.55164	-300.49933	-165.91171	1613.22644	-572.22913	-158.78839	1610.16357	-671.69971	175.68512	1615.90747	58.41795	227.33188	1604.13501	-281.36850	212.97392	1639.87952	-552.02734	196.48238	1635.67407	-650.33734	8.38751	1119.25427	65.12768	12.08339	1237.40002	57.99906	12.84314	1321.95300	78.60314	12.40983	1422.08020	124.23652	14.55285	1581.66675	126.13549	0.00000	0.00000	0.00000	63.39025	1117.67334	68.93703	9.45701	1173.92297	72.37312	4.40422	1112.10303	119.67403	182.31393	1098.87341	-58.70277	-147.70251	1108.35876	-81.55891	49.35803	1080.89758	96.55571	-38.64635	1083.42700	90.46075	207.42239	797.54547	42.23067	-193.35313	804.14032	32.73617	228.72275	341.28058	30.44664	-219.38564	280.30136	27.14267	255.85831	30.66569	-143.57986	-240.63377	32.26810	-149.60760	197.57811	26.66148	133.63058	-190.60013	33.78899	129.26295	4.44804	5.24536	5.33026	6.84909	2.50213	11.45782	-4.35513	0.33187	-0.05826	-1.51711	-0.61823	-0.08150	4.18474	2.35319	-0.12337	7.09453	3.01646	3.34424
186	3.08333	-90.07531	1018.09491	22.10966	106.42451	1012.44012	35.91787	-149.25146	541.46545	15.06975	163.13165	535.95752	14.10865	-193.63330	102.65747	63.78854	205.92839	98.04953	71.56044	-225.28227	31.92560	-66.00661	238.24936	31.26350	-60.14540	217.40906	539.16693	23.23663	-203.79111	545.30048	22.16744	256.48825	103.76027	102.27368	-245.28348	108.88822	92.52271	-144.40346	1617.83521	39.75779	-195.91608	1606.60376	-300.06738	-165.47018	1613.93811	-571.65399	-157.58910	1610.66992	-671.06085	176.07063	1615.87585	58.15219	227.98434	1604.37805	-281.60297	212.92915	1640.74951	-552.14038	196.30576	1636.53699	-650.42786	8.64907	1119.22522	64.83447	12.34605	1237.40881	57.93184	13.08177	1321.94543	78.70759	12.59543	1422.00049	124.55508	14.75865	1581.60681	126.81148	0.00000	0.00000	0.00000	63.64789	1117.64246	68.69928	9.70644	1173.88208	72.17033	4.60880	1111.98450	119.36481	182.70773	1099.06067	-58.84544	-147.28522	1108.55688	-82.03432	49.58955	1080.82043	96.24300	-38.40858	1083.35278	90.05930	207.74338	797.58569	42.03194	-193.01619	804.16357	32.20337	228.94331	341.25024	30.42662	-219.21797	280.37927	26.93539	255.93185	30.32574	-143.50955	-239.85376	32.55444	-149.97328	197.58278	26.75492	133.69469	-190.99681	33.81064	129.10620	4.58706	5.25274	5.27217	7.01191	2.48261	11.38893	-4.30905	0.28167	-0.05136	-1.45254	-0.56218	-0.05562	4.29425	2.35869	-0.10347	7.04488	2.88794	3.35431
